<svg id="Capa_1" enable-background="new 0 0 512 512" height="512" viewBox="0 0 512 512" width="512" xmlns="http://www.w3.org/2000/svg"><path d="m256 471.75c-57.629 0-111.809-22.442-152.559-63.192-40.75-40.749-63.191-94.929-63.191-152.558 0-34.912 8.534-69.592 24.679-100.29 15.625-29.709 38.347-55.754 65.709-75.321 7.869-5.628 16.594 6.574 8.725 12.201-25.469 18.212-46.616 42.453-61.158 70.102-15.017 28.554-22.955 60.819-22.955 93.308 0 110.694 90.056 200.75 200.75 200.75s200.75-90.056 200.75-200.75-90.056-200.75-200.75-200.75c-26.002 0-51.299 4.896-75.189 14.553-8.97 3.624-14.591-10.282-5.621-13.907 25.684-10.382 52.873-15.646 80.81-15.646 57.629 0 111.809 22.442 152.559 63.192s63.191 94.929 63.191 152.558-22.441 111.809-63.191 152.558c-40.75 40.75-94.93 63.192-152.559 63.192z"/><path d="m256 512c-68.38 0-132.668-26.629-181.02-74.98-48.351-48.353-74.98-112.64-74.98-181.02s26.629-132.667 74.98-181.02c48.352-48.351 112.64-74.98 181.02-74.98s132.668 26.629 181.02 74.98c48.351 48.353 74.98 112.64 74.98 181.02 0 40.977-9.393 80.127-27.916 116.365-17.666 34.56-43.457 65.171-74.583 88.527-7.736 5.81-16.741-6.192-9.002-11.998 29.311-21.993 53.596-50.817 70.229-83.356 17.433-34.104 26.272-70.958 26.272-109.538 0-64.374-25.068-124.894-70.587-170.413s-106.039-70.587-170.413-70.587-124.894 25.068-170.413 70.587-70.587 106.039-70.587 170.413 25.068 124.894 70.587 170.413 106.039 70.587 170.413 70.587c36.705 0 71.943-8.036 104.736-23.886 8.711-4.208 15.238 9.296 6.527 13.505-34.844 16.842-72.279 25.381-111.263 25.381z"/><path d="m190.888 362.059c-10.264 0-18.746-8.594-18.746-18.777v-108.282c0-9.674 15-9.674 15 0v108.282c0 2.864 3.14 4.677 5.62 3.245l151.178-87.282c2.48-1.432 2.48-5.059 0-6.49l-151.178-87.282c-2.48-1.432-5.62.381-5.62 3.245v24.282c0 9.674-15 9.674-15 0v-24.282c0-14.135 15.872-23.308 28.12-16.235l151.178 87.282c12.242 7.069 12.247 25.398 0 32.471l-151.178 87.282c-2.935 1.694-6.155 2.541-9.374 2.541z"/></svg>