<svg id="Capa_1" enable-background="new 0 0 512 512" height="512" viewBox="0 0 512 512" width="512" xmlns="http://www.w3.org/2000/svg"><path d="m139.362 92.59c7.869-5.627-.855-17.827-8.725-12.201-27.362 19.567-50.084 45.612-65.709 75.321-16.144 30.698-24.678 65.378-24.678 100.29 0 57.629 22.441 111.809 63.191 152.559s94.93 63.191 152.559 63.191 111.809-22.441 152.559-63.191 63.191-94.93 63.191-152.559-22.441-111.809-63.191-152.559-94.93-63.191-152.559-63.191c-27.938 0-55.127 5.264-80.811 15.646-8.97 3.624-3.35 17.527 5.621 13.906 23.889-9.656 49.187-14.552 75.19-14.552 110.694 0 200.75 90.056 200.75 200.75s-90.056 200.75-200.75 200.75-200.75-90.056-200.75-200.75c0-32.489 7.938-64.755 22.954-93.308 14.542-27.648 35.69-51.889 61.158-70.102z"/><path d="m437.02 74.98c-48.352-48.351-112.64-74.98-181.02-74.98s-132.668 26.629-181.02 74.98-74.98 112.64-74.98 181.02 26.629 132.668 74.98 181.02 112.64 74.98 181.02 74.98c38.984 0 76.419-8.539 111.264-25.38 8.71-4.21 2.184-17.714-6.527-13.506-32.794 15.85-68.032 23.886-104.737 23.886-64.374 0-124.895-25.068-170.413-70.587s-70.587-106.039-70.587-170.413 25.068-124.895 70.587-170.413 106.039-70.587 170.413-70.587 124.895 25.068 170.413 70.587 70.587 106.039 70.587 170.413c0 38.58-8.839 75.434-26.272 109.537-16.633 32.539-40.918 61.363-70.229 83.356-7.738 5.807 1.267 17.807 9.002 11.998 31.127-23.355 56.917-53.968 74.583-88.526 18.523-36.238 27.916-75.388 27.916-116.365 0-68.38-26.629-132.668-74.98-181.02z"/><path d="m211.473 348h-21.945c-11.319 0-20.528-9.209-20.528-20.527v-142.946c0-11.318 9.209-20.527 20.527-20.527h21.945c11.318 0 20.527 9.209 20.527 20.527v73.473c0 9.675-15 9.675-15 0v-73.473c0-3.048-2.479-5.527-5.527-5.527h-21.945c-3.048 0-5.527 2.479-5.527 5.527v142.945c0 3.048 2.479 5.527 5.527 5.527h21.945c3.048 0 5.527-2.479 5.527-5.527v-25.472c0-9.675 15-9.675 15 0v25.473c.001 11.318-9.208 20.527-20.526 20.527z"/><path d="m322.473 348h-21.945c-11.319 0-20.528-9.209-20.528-20.527v-142.946c0-11.318 9.209-20.527 20.527-20.527h21.945c11.318 0 20.527 9.209 20.527 20.527v142.945c.001 11.319-9.208 20.528-20.526 20.528zm-21.946-169c-3.048 0-5.527 2.479-5.527 5.527v142.945c0 3.048 2.479 5.527 5.527 5.527h21.945c3.048 0 5.527-2.479 5.527-5.527v-142.945c0-3.048-2.479-5.527-5.527-5.527z"/></svg>